<svg width="35" height="32" viewBox="0 0 35 32" xmlns="http://www.w3.org/2000/svg">
<path d="M25 13.5V6H13H1V30.5H25V24" fill="transparent" stroke="current" stroke-width="1.5" stroke-linejoin="round"/>
<path d="M25 6L21 1H5L1 6M9 6V9.5H16.5V6" fill="transparent" stroke="current" stroke-width="1.5" stroke-linejoin="round"/>
<path d="M20.8417 16.4417C20.5515 16.7319 20.5515 17.2024 20.8417 17.4925C21.1319 17.7827 21.6024 17.7827 21.8925 17.4925C22.7043 16.6807 24.0253 16.6807 24.8372 17.4925C24.9823 17.6375 25.1725 17.7102 25.3626 17.7102C25.5528 17.7102 25.743 17.6376 25.888 17.4925C26.1782 17.2023 26.1782 16.7318 25.888 16.4417C24.4967 15.0504 22.233 15.0504 20.8417 16.4417Z" fill="current" stroke="none"/>
<path d="M33.4824 25.7111L30.164 22.3928C29.8738 22.1026 29.4033 22.1026 29.1132 22.3928L28.4783 23.0276L28.0742 22.6235C29.8931 20.2854 29.7304 16.8948 27.5827 14.7471C26.456 13.6204 24.9582 13 23.3648 13C21.7715 13 20.2736 13.6204 19.147 14.7471C18.0203 15.8737 17.3999 17.3717 17.3999 18.9649C17.3999 20.5582 18.0203 22.0561 19.147 23.1828C20.2736 24.3094 21.7716 24.9299 23.3648 24.9299C24.7076 24.9299 25.9816 24.4877 27.0238 23.6747L27.4275 24.0784L26.7927 24.7133C26.5025 25.0035 26.5025 25.474 26.7927 25.7641L30.111 29.0825C30.5582 29.5297 31.1527 29.776 31.7851 29.776C32.4175 29.776 33.0121 29.5297 33.4587 29.0831L33.4825 29.0593C34.4055 28.1362 34.4055 26.6341 33.4824 25.7111ZM20.1977 22.1319C19.3518 21.2859 18.886 20.1612 18.886 18.9649C18.886 17.7687 19.3518 16.6438 20.1977 15.7979C21.0436 14.952 22.1684 14.4861 23.3647 14.4861C24.5611 14.4861 25.6858 14.952 26.5317 15.7979C28.2779 17.5441 28.2779 20.3856 26.5317 22.1319C25.6857 22.9778 24.561 23.4437 23.3647 23.4437C22.1685 23.4437 21.0436 22.9778 20.1977 22.1319ZM32.4321 28.0079L32.4083 28.0317C32.2419 28.1981 32.0205 28.2899 31.7851 28.2899C31.5497 28.2899 31.3284 28.1981 31.1618 28.0317L28.3689 25.2387L29.6385 23.9691L32.4315 26.762C32.7752 27.1056 32.7752 27.6648 32.4321 28.0079Z" fill="current" stroke="none"/>
</svg>
