<svg width="28" height="28" viewBox="0 0 28 28" fill="none" xmlns="http://www.w3.org/2000/svg">
<path fill-rule="evenodd" clip-rule="evenodd" d="M5.60007 1.86664C4.56912 1.86664 3.7334 2.70238 3.7334 3.7333V24.2666C3.7334 25.2976 4.56914 26.1333 5.60007 26.1333H19.6001C20.1155 26.1333 20.5334 25.7154 20.5334 25.2C20.5334 24.6846 20.1155 24.2666 19.6001 24.2666H5.60007V3.7333H19.6001C20.1155 3.7333 20.5334 3.31543 20.5334 2.79997C20.5334 2.28451 20.1155 1.86664 19.6001 1.86664H5.60007ZM23.5268 9.14001C23.1622 8.77551 22.5712 8.77551 22.2067 9.14001C21.8423 9.5045 21.8423 10.0954 22.2067 10.4599L24.8135 13.0666H12.1334C11.6179 13.0666 11.2001 13.4845 11.2001 14C11.2001 14.5154 11.6179 14.9333 12.1334 14.9333H24.8135L22.2067 17.54C21.8423 17.9045 21.8423 18.4954 22.2067 18.86C22.5712 19.2244 23.1622 19.2244 23.5268 18.86L27.7268 14.6599C28.0912 14.2954 28.0912 13.7045 27.7268 13.34L23.5268 9.14001Z" fill="current"/>
</svg>
