<svg width="41" height="26" viewBox="0 0 41 26" fill="none" xmlns="http://www.w3.org/2000/svg">
<path fill-rule="evenodd" clip-rule="evenodd" d="M21.7778 3.28V22.6H19.2178V3.28C19.2178 2.57308 19.7909 2 20.4978 2C21.2047 2 21.7778 2.57308 21.7778 3.28ZM17.2178 3.28C17.2178 1.46851 18.6863 0 20.4978 0C22.3093 0 23.7778 1.46851 23.7778 3.28V22.6V23.2955H30.3439V22.5997V9.8397C30.3439 8.0282 31.8124 6.5597 33.6239 6.5597C35.4354 6.5597 36.9039 8.0282 36.9039 9.83969V22.5997V23.2955H40.0682C40.5828 23.2955 41 23.7126 41 24.2273C41 24.7419 40.5828 25.1591 40.0682 25.1591H0.931817C0.417188 25.1591 0 24.7419 0 24.2273C0 23.7126 0.417189 23.2955 0.931818 23.2955H4.49188V22.7127V7.02095C4.49188 5.31492 5.87489 3.9319 7.58092 3.9319C9.28695 3.9319 10.67 5.31492 10.67 7.02095V22.7127V23.2955H17.2178V22.6V3.28ZM8.66996 22.7127V7.02095C8.66996 6.41948 8.18238 5.9319 7.58092 5.9319C6.97946 5.9319 6.49188 6.41948 6.49188 7.02095V22.7127H8.66996ZM34.9039 9.83969V22.5997H32.3439V9.8397C32.3439 9.13277 32.917 8.5597 33.6239 8.5597C34.3308 8.5597 34.9039 9.13277 34.9039 9.83969Z" fill="current"/>
</svg>
