<svg width="29" height="29" viewBox="0 0 29 29" fill="none" xmlns="http://www.w3.org/2000/svg">
<path fill-rule="evenodd" clip-rule="evenodd" d="M14.5001 11.4791C16.1687 11.4791 17.5209 12.8314 17.5209 14.5C17.5209 16.1685 16.1687 17.5208 14.5001 17.5208C12.8315 17.5208 11.4792 16.1685 11.4792 14.5C11.4792 12.8314 12.8315 11.4791 14.5001 11.4791Z" stroke="current" stroke-width="2" stroke-linecap="round" stroke-linejoin="round"/>
<path fill-rule="evenodd" clip-rule="evenodd" d="M24.3697 8.7607C23.5439 7.32005 21.7153 6.82711 20.2862 7.65902C19.0432 8.38114 17.4896 7.47761 17.4896 6.0322C17.4896 4.36954 16.1505 3.02081 14.4998 3.02081C12.8491 3.02081 11.51 4.36954 11.51 6.0322C11.51 7.47761 9.95647 8.38114 8.71457 7.65902C7.28426 6.82711 5.45579 7.32005 4.62985 8.7607C3.80507 10.2013 4.29449 12.043 5.72479 12.8737C6.96668 13.597 6.96668 15.403 5.72479 16.1263C4.29449 16.9581 3.80507 18.7998 4.62985 20.2393C5.45579 21.6799 7.28426 22.1729 8.71338 21.3422H8.71457C9.95647 20.6189 11.51 21.5223 11.51 22.9677C11.51 24.6304 12.8491 25.9791 14.4998 25.9791C16.1505 25.9791 17.4896 24.6304 17.4896 22.9677C17.4896 21.5223 19.0432 20.6189 20.2862 21.3422C21.7153 22.1729 23.5439 21.6799 24.3697 20.2393C25.1956 18.7998 24.7051 16.9581 23.276 16.1263H23.2748C22.033 15.403 22.033 13.597 23.276 12.8737C24.7051 12.043 25.1956 10.2013 24.3697 8.7607Z" stroke="current" stroke-width="2" stroke-linecap="round" stroke-linejoin="round"/>
</svg>
