<svg width="15" height="15" viewBox="0 0 15 15" fill="none" xmlns="http://www.w3.org/2000/svg">
<g clip-path="url(#clip0_372_25278)">
<path d="M9.31055 13.1897C9.31055 12.1914 8.49843 11.3793 7.5002 11.3793C6.50198 11.3793 5.68986 12.1914 5.68986 13.1897C5.68986 14.1879 6.50198 15 7.5002 15C8.49843 15 9.31055 14.1879 9.31055 13.1897Z" fill="#227AFF"/>
<path d="M9.31055 1.81034C9.31055 0.812121 8.49843 -3.54989e-08 7.5002 -7.91327e-08C6.50198 -1.22766e-07 5.68986 0.812121 5.68986 1.81034C5.68986 2.80857 6.50198 3.62069 7.5002 3.62069C8.49843 3.62069 9.31055 2.80857 9.31055 1.81034Z" fill="#227AFF"/>
<path d="M9.31055 7.5C9.31055 6.50177 8.49843 5.68965 7.5002 5.68965C6.50198 5.68965 5.68986 6.50177 5.68986 7.5C5.68986 8.49822 6.50198 9.31034 7.5002 9.31034C8.49843 9.31034 9.31055 8.49822 9.31055 7.5Z" fill="#227AFF"/>
</g>
<defs>
<clipPath id="clip0_372_25278">
<rect width="15" height="15" fill="white" transform="translate(15) rotate(90)"/>
</clipPath>
</defs>
</svg>